<svg width="42" height="50" viewBox="0 0 42 50" fill="none" xmlns="http://www.w3.org/2000/svg">
  <path fill-rule="evenodd" clip-rule="evenodd" d="M6.01896 5.96796L6.01895 5.96795C5.97905 5.94583 5.9387 5.92345 5.89446 5.89397H5.9028C5.90553 5.88941 5.90886 5.88455 5.9124 5.8794L5.91241 5.87938C5.91965 5.86883 5.92776 5.85703 5.93335 5.84397C5.94446 5.8398 5.95627 5.83633 5.96807 5.83286L5.96809 5.83285C5.97989 5.82938 5.99169 5.82591 6.0028 5.82174C6.06809 5.86838 6.09079 5.91753 6.11464 5.96918C6.1263 5.99444 6.13824 6.02029 6.15557 6.04674C8.61946 7.59397 9.99724 6.76341 10.9611 4.60508C11.0945 4.29397 11.2222 3.95786 11.3472 3.59952C12.4857 0.255749 15.1641 0.215048 17.7545 0.175684C18.5835 0.163086 19.4035 0.150626 20.1611 0.0300776C21.9889 -0.256033 21.4056 1.44674 20.6139 2.26619C20.3526 2.54016 20.0455 2.77081 19.7274 3.00969C18.9264 3.61126 18.056 4.265 17.6722 5.79397C18.411 5.79397 19.1182 5.79859 19.8037 5.80307C21.3092 5.81291 22.7102 5.82207 24.1111 5.78008C26.7306 5.7023 27.175 6.65508 25.7306 8.77452C25.4142 9.24169 25.1583 9.7523 24.9029 10.2618L24.9029 10.2619C24.5843 10.8975 24.2666 11.5315 23.8334 12.0773C22.3195 13.9717 22.3528 15.2662 24.8361 16.1495C25.4611 16.3717 26.2667 16.9273 26.425 17.4912C27.1788 20.1624 28.9835 22.1696 30.7829 24.171C32.7766 26.3884 34.7638 28.5987 35.3084 31.6967C35.3337 31.8393 35.351 31.9713 35.3668 32.0922C35.4535 32.7535 35.4967 33.0828 36.5722 32.9912C38.4056 32.819 40.575 32.7967 41.0861 35.1356C41.5778 37.3662 39.9861 38.7856 38.2834 39.9634C38.0514 40.1219 37.8746 40.3543 37.6772 40.614L37.6771 40.614L37.6771 40.6141C37.5908 40.7276 37.5005 40.8462 37.4 40.9662C37.5571 41.6515 38.151 41.6697 38.707 41.6867C39.262 41.7037 39.7792 41.7196 39.7861 42.3967C39.7972 43.5245 38.5889 44.0495 37.7528 44.3079C33.4889 45.6329 28.9972 46.0829 24.625 45.994C22.2911 45.9425 20.2482 46.6884 18.2164 47.4303C16.7417 47.9687 15.2728 48.5051 13.7028 48.7329C13.4729 48.7672 13.2471 48.8186 13.017 48.871C12.1849 49.0604 11.2951 49.2629 9.94168 48.719C11.5466 48.1361 12.6068 46.9544 13.6749 45.7641C15.2687 43.9877 16.8799 42.192 20.3445 42.3384C19.738 42.0864 19.2508 41.8809 18.8417 41.7082L18.8387 41.707L18.8385 41.7069L18.8385 41.7069L18.8384 41.7069C18.0408 41.3703 17.5398 41.1589 17.0278 40.9717C14.6972 40.1301 14.3861 38.494 16.125 36.5995C17.1056 35.5356 17.7834 34.394 15.5611 33.9329C14.3395 33.6811 14.631 33.1584 14.9543 32.5789C15.1874 32.1608 15.4371 31.7131 15.1472 31.3162C14.775 30.8051 15.9972 30.6606 16.7028 30.7495C18.7917 31.019 21.7445 31.3801 20.9334 28.3273C20.8675 28.0806 20.805 27.8026 20.7385 27.5063L20.7384 27.5061L20.7384 27.5059C20.2774 25.4535 19.6182 22.5192 16.2445 22.9634C12.5889 23.444 11.4417 22.5384 13.7278 19.2217C13.2628 19.0137 12.6194 19.254 12.0027 19.4844C10.8327 19.9215 9.75856 20.3228 10.1806 17.5579C10.2056 17.3829 9.86113 16.9634 9.79169 16.9829C9.52593 17.0671 9.25436 17.3304 8.9844 17.5922L8.98439 17.5923C8.39939 18.1596 7.82197 18.7196 7.3278 17.4329C6.97519 16.5155 7.57192 16.273 8.27236 15.9883C8.98451 15.6988 9.80387 15.3658 9.84169 14.2356C9.78655 14.0567 9.37532 14.0527 8.93264 14.0484C8.19329 14.0412 7.36622 14.0332 7.96391 13.2079C9.95347 10.4628 8.43131 9.30913 6.72826 8.01841L6.72821 8.01837L6.72805 8.01825C6.55274 7.88538 6.37552 7.75107 6.20002 7.61341C5.96982 7.43416 6.05364 7.1639 6.14328 6.8749C6.1856 6.73845 6.22921 6.59783 6.24169 6.46063C6.24169 6.45647 6.2403 6.45092 6.23891 6.44536L6.23891 6.44536C6.23752 6.4398 6.23613 6.43424 6.23613 6.43008C6.24446 6.29952 6.23057 6.16619 6.15002 6.04674C6.10403 6.01513 6.06175 5.99169 6.01897 5.96796L6.01896 5.96796ZM1.4778 26.1856C0.916685 26.094 0.277796 25.5051 0.338907 24.6579C0.46113 23.1023 5.2028 19.9329 7.30835 20.0579C9.24749 20.1646 9.87283 21.4824 10.4606 22.7212C10.6988 23.2232 10.9309 23.7122 11.2417 24.1023C11.15 25.9356 10.0417 26.9717 8.85002 26.9773C6.51002 27.0064 4.15236 26.6218 1.82271 26.2418L1.4778 26.1856ZM8.19169 0.8773C5.56669 1.5773 4.0528 2.97174 4.23891 5.79119C2.48053 5.96414 2.99059 6.67928 3.46069 7.33839C3.5342 7.44146 3.60673 7.54315 3.66946 7.64119C3.80518 7.33243 4.04139 7.04233 4.28509 6.74303L4.28509 6.74303C4.44043 6.55226 4.5988 6.35775 4.73613 6.1523C4.89028 6.11242 5.04485 6.07169 5.19951 6.03095L5.1997 6.0309C5.44352 5.96666 5.68757 5.90237 5.93057 5.84119C6.16736 5.31917 6.57444 4.87779 6.98734 4.4301C7.82901 3.51752 8.69485 2.57873 8.19169 0.8773ZM3.57502 8.42452C3.99724 8.2773 3.88335 7.98286 3.66669 7.64119C3.55835 7.88008 3.49446 8.13008 3.57502 8.42452Z" fill="#0E8784" />
</svg>